<svg width="50" height="50" viewBox="0 0 50 50" fill="none" xmlns="http://www.w3.org/2000/svg">
<g clip-path="url(#clip0)">
<path d="M25.014 32.2536C24.7383 32.5027 24.4729 32.7578 24.1927 32.995C22.9564 34.0331 21.5629 34.7583 19.9516 34.9851C19.7832 35.0041 19.6214 35.0618 19.479 35.1536C19.3365 35.2455 19.2172 35.369 19.1303 35.5145C17.3766 38.0059 15.6037 40.4868 13.8396 42.9722C12.8612 44.3499 11.9006 45.7408 10.9089 47.1096C9.79265 48.64 8.32211 49.6588 6.41426 49.9331C4.37299 50.2297 2.66822 49.5683 1.3474 47.9845C0.109593 46.5001 -0.148346 44.7844 0.334918 42.9618C0.758886 41.344 1.73579 40.1042 3.08033 39.1403C4.6833 37.9925 6.28381 36.8467 7.88184 35.7029C10.0205 34.1676 12.1576 32.6312 14.2932 31.0939C14.5097 30.9456 14.7869 30.8211 14.9218 30.612C15.0567 30.4029 15.0285 30.1152 15.0774 29.8601C15.3851 28.2973 16.1111 26.8473 17.178 25.6649C17.3262 25.4914 17.4863 25.3194 17.6524 25.1578C17.7532 25.0599 17.7502 24.9961 17.6524 24.8982C17.0144 24.2705 16.4657 23.5579 16.0217 22.7806C15.4619 21.8191 15.1084 20.7514 14.984 19.6457C14.9799 19.5905 14.9627 19.5371 14.9338 19.4899C14.9049 19.4428 14.8652 19.4031 14.818 19.3743C12.2525 17.5562 9.68839 15.7372 7.12581 13.9171C5.69974 12.9013 4.26181 11.9092 2.84611 10.8831C1.4571 9.87466 0.515771 8.54447 0.148135 6.85096C-0.173547 5.36803 -0.000105282 3.93107 0.861171 2.65278C2.20868 0.652303 4.24254 -0.201866 6.59363 0.240048C8.13516 0.521349 9.5181 1.36335 10.476 2.60384C11.2024 3.51733 11.8576 4.48716 12.5395 5.43476C14.2127 7.75802 15.8843 10.0813 17.5545 12.4045C18.1327 13.2083 18.7093 14.013 19.2845 14.8188C19.3153 14.8719 19.3582 14.9171 19.4097 14.9505C19.4612 14.984 19.5199 15.0049 19.581 15.0115C21.5837 15.2295 23.2514 16.1415 24.6967 17.5058L24.9413 17.7386C24.9572 17.7477 24.9741 17.7546 24.9917 17.7594C25.0451 17.709 25.1059 17.6556 25.1637 17.5978C26.3778 16.3996 27.7801 15.5217 29.4538 15.1242C29.7636 15.0501 30.0853 15.0204 30.3981 14.9567C30.4874 14.9392 30.568 14.8915 30.6264 14.8217C32.3884 12.3502 34.1476 9.87614 35.9037 7.39964C36.9577 5.91671 37.9984 4.42192 39.0598 2.94195C40.0974 1.49461 41.4553 0.50401 43.2179 0.124379C46.2168 -0.511798 48.6465 1.20395 49.527 3.48174C50.1748 5.15448 49.9569 6.79312 49.1475 8.36503C48.5738 9.47871 47.6977 10.3106 46.6852 11.0343C44.7151 12.4283 42.7613 13.8445 40.8016 15.2518L35.2263 19.2557C35.1656 19.2866 35.1132 19.3317 35.0737 19.3873C35.0343 19.4428 35.0088 19.507 34.9995 19.5745C34.8275 21.228 34.1589 22.6753 33.1331 23.9655C32.89 24.271 32.6217 24.5586 32.3519 24.8404C32.2451 24.9516 32.2377 25.0109 32.3519 25.1222C33.3108 26.048 34.0613 27.1678 34.5533 28.4069C34.7988 29.0186 34.959 29.6614 35.0291 30.3169C35.0332 30.3924 35.0552 30.4658 35.0933 30.5311C35.1315 30.5963 35.1847 30.6515 35.2485 30.6921C36.804 31.7874 38.3571 32.8873 39.9077 33.9916C41.8743 35.3885 43.8405 36.7864 45.8062 38.1853C46.3754 38.5901 46.9669 38.9713 47.505 39.4147C49.1045 40.736 50.0029 42.4206 49.9999 44.5234C49.9999 46.2272 49.2795 47.6093 47.9764 48.6756C46.4688 49.9168 44.7448 50.1585 42.9007 49.6588C41.5399 49.2966 40.3395 48.4889 39.4911 47.3647C38.6832 46.3118 37.9287 45.2174 37.1534 44.1393C35.5781 41.9505 34.0033 39.7607 32.429 37.5699C31.8508 36.7765 31.2786 35.9698 30.6857 35.169C30.6325 35.093 30.5525 35.04 30.4618 35.0207C28.6029 34.8191 27.0182 34.0212 25.6292 32.7963C25.4335 32.6243 25.2467 32.4419 25.0555 32.264C25.042 32.2592 25.0281 32.2557 25.014 32.2536ZM40.3213 6.28299C40.3213 7.9246 41.2478 9.14357 42.5983 9.48613C43.3891 9.68429 44.2249 9.59057 44.9523 9.22217C46.3221 8.56374 47.1982 7.50048 47.4605 5.98493C47.5332 5.56462 47.5176 5.13379 47.4147 4.71984C47.3119 4.3059 47.1241 3.91789 46.8632 3.58049C46.6023 3.2431 46.2741 2.9637 45.8995 2.76007C45.5248 2.55645 45.1119 2.43304 44.687 2.39771C43.7842 2.3437 42.8914 2.6111 42.1669 3.15253C41.021 3.97704 40.385 5.0922 40.3213 6.28299ZM6.63217 40.4245H6.50765C4.51085 40.4972 2.68898 42.2545 2.50516 44.2505C2.46648 44.7018 2.52715 45.1561 2.68289 45.5813C2.83864 46.0066 3.08567 46.3926 3.40661 46.7121C3.72754 47.0316 4.11458 47.2769 4.54047 47.4306C4.96637 47.5843 5.42077 47.6428 5.8717 47.6019C7.72174 47.4166 9.33311 45.8995 9.64738 43.9999C9.72438 43.5605 9.70406 43.1096 9.58787 42.6789C9.47167 42.2483 9.26243 41.8484 8.9749 41.5074C8.68737 41.1665 8.32855 40.8928 7.92376 40.7057C7.51898 40.5186 7.07808 40.4226 6.63217 40.4245V40.4245ZM44.3445 47.5159C46.3665 47.5263 47.7956 45.9455 47.6058 44.1304C47.4901 43.1695 47.056 42.2751 46.3727 41.59C45.6894 40.9048 44.7963 40.4684 43.8361 40.3504C43.4021 40.2965 42.9617 40.3372 42.5449 40.4696C42.1282 40.6019 41.7449 40.8229 41.4215 41.1172C41.0981 41.4116 40.8421 41.7725 40.6712 42.1751C40.5002 42.5777 40.4182 43.0125 40.431 43.4497C40.4544 44.3048 40.7568 45.1287 41.2923 45.7957C42.1091 46.8679 43.1883 47.4536 44.3445 47.5159ZM6.27639 9.69819C8.32508 9.70857 9.76004 8.15594 9.57622 6.37642C9.47371 5.41804 9.05535 4.52102 8.38705 3.82671C7.71875 3.1324 6.83852 2.68027 5.88504 2.54156C5.44917 2.48239 5.00569 2.51743 4.58451 2.6443C4.16333 2.77117 3.77424 2.98693 3.44351 3.27703C3.11278 3.56712 2.84808 3.9248 2.66729 4.32593C2.48649 4.72706 2.3938 5.16231 2.39546 5.60233C2.41236 6.40902 2.67624 7.19111 3.15149 7.84304C3.9757 8.98786 5.08899 9.62701 6.27639 9.69819Z" fill="#262A55"/>
</g>
<defs>
<clipPath id="clip0">
<rect width="50" height="50" fill="white"/>
</clipPath>
</defs>
</svg>
